<?xml version="1.0" encoding="utf-8"?>
<!-- Generator: Adobe Illustrator 23.0.1, SVG Export Plug-In . SVG Version: 6.00 Build 0)  -->
<svg version="1.1" id="Outline" xmlns="http://www.w3.org/2000/svg" xmlns:xlink="http://www.w3.org/1999/xlink" x="0px" y="0px"
	 viewBox="0 0 512 512" style="enable-background:new 0 0 512 512;" xml:space="preserve">
<path d="M392,48c-14.5,0-28.9,3.1-42.2,8.9C301.7,5.1,220.8,2.1,169,50.1c-2.4,2.2-4.7,4.5-6.9,6.9c-52.5-23.3-114,0.4-137.2,52.9
	s0.4,114,52.9,137.2c5.1,2.3,10.4,4.1,15.8,5.5l26.4,156V488c0,4.4,3.6,8,8,8h256c4.4,0,8-3.6,8-8v-79.3l26.4-156
	c55.6-14.6,88.8-71.4,74.2-127C480.6,79.9,439.3,48,392,48z M376,480H136v-64h240V480z M409.8,238.2c-3.2,0.7-5.7,3.2-6.3,6.5
	L377.2,400h-48.6l7.4-103.4h0c0-0.2,0-0.4,0-0.6c-0.1-4.4-3.7-8-8.1-7.9c-4.1,0.1-7.5,3.2-7.9,7.3h0L312.6,400H264v-88
	c0-4.4-3.6-8-8-8s-8,3.6-8,8v88h-48.6L192,295.4h0c-0.4-4.4-4.2-7.7-8.6-7.3c-4.1,0.3-7.3,3.8-7.3,7.9c0,0.2,0,0.4,0,0.6h0
	l7.4,103.4h-48.6l-26.3-155.3c-0.6-3.3-3-5.8-6.3-6.5c-47.6-9.8-78.2-56.4-68.4-104s56.4-78.2,104-68.4
	c40.9,8.4,70.2,44.4,70.2,86.2c0,4.4,3.6,8,8,8s8-3.6,8-8c0-35.2-17.8-67.9-47.3-87.1c43.7-43.8,114.6-43.9,158.4-0.1
	c13.7,13.7,23.7,30.7,28.8,49.4c1.1,4.3,5.5,6.8,9.8,5.7s6.8-5.5,5.7-9.8c0-0.1,0-0.1-0.1-0.2c-4-14.3-10.4-27.9-19.1-40
	C370.4,66,381.2,64,392,64c48.6,0,88,39.4,88,88C480,193.8,450.7,229.8,409.8,238.2z"/>
</svg>
