<?xml version="1.0" encoding="utf-8"?>
<!-- Generator: Adobe Illustrator 23.0.1, SVG Export Plug-In . SVG Version: 6.00 Build 0)  -->
<svg version="1.1" id="Capa_1" xmlns="http://www.w3.org/2000/svg" xmlns:xlink="http://www.w3.org/1999/xlink" x="0px" y="0px"
	 viewBox="0 0 512 512" style="enable-background:new 0 0 512 512;" xml:space="preserve">
<g>
	<g>
		<g>
			<path d="M0,96l0,341.3c0,5.9,4.8,10.7,10.7,10.7c23.9,0,36.4-6.3,47.4-11.8c10.2-5.1,19.1-9.5,37.9-9.5s27.7,4.4,37.9,9.5
				c11.1,5.5,23.6,11.8,47.4,11.8c5.9,0,10.7-4.8,10.7-10.7V298.7h74.7c12.8,0,23.8-7.6,28.9-18.5c16.4,11.9,36.1,18.5,56.4,18.5
				h94.1c17.3,0,31.4-14.4,31.4-32c0-4.2-0.8-8.2-2.2-11.8c13.2-3.8,22.9-16.2,22.9-30.8c0-5.1-1.2-9.9-3.3-14.2
				c10.1-5.3,17.1-16.1,17.1-28.5s-6.9-23.2-17.1-28.5c2.1-4.3,3.3-9.1,3.3-14.2c0-17.6-14.1-32-31.4-32h-23.1l-22.1-22.8
				C409.6,71.4,391.5,64,373.3,64c-31.1,0-59.9,12.2-81.5,33.8c-5.9-7.5-14.9-12.5-25.2-12.5h-85.3H10.7C4.8,85.3,0,90.1,0,96z
				 M298.7,254.4V122.2c18.2-23.4,45.2-36.8,74.7-36.8c12.3,0,25,5.1,33,13.4l7.7,7.9h-16.2c-5.9,0-10.7,4.8-10.7,10.7
				s4.8,10.7,10.7,10.7h69c5.5,0,10,4.8,10,10.7c0,5.9-4.5,10.7-10,10.7h-8.2c-5.9,0-10.7,4.8-10.7,10.7s4.8,10.7,10.7,10.7h22
				c5.5,0,10,4.8,10,10.7c0,5.9-4.5,10.7-10,10.7h-22c-5.9,0-10.7,4.8-10.7,10.7c0,5.9,4.8,10.7,10.7,10.7h8.2c5.5,0,10,4.8,10,10.7
				s-4.5,10.7-10,10.7h-29.5c-5.9,0-10.7,4.8-10.7,10.7s4.8,10.7,10.7,10.7h8.8c5.5,0,10,4.8,10,10.7c0,5.9-4.5,10.7-10,10.7H352
				C332,277.3,312.9,268.9,298.7,254.4L298.7,254.4z M192,106.7h74.7c5.9,0,10.7,4.8,10.7,10.7v149.3c0,5.9-4.8,10.7-10.7,10.7H192
				V106.7z M21.3,426.1V106.7h149.3v319.4c-11.9-1.3-19.1-4.9-27.2-9c-11.1-5.5-23.6-11.8-47.4-11.8c-23.9,0-36.4,6.3-47.4,11.8
				C40.5,421.2,33.3,424.8,21.3,426.1L21.3,426.1z"/>
			<circle cx="234.7" cy="234.7" r="21.3"/>
		</g>
	</g>
</g>
</svg>
